# xmcd
#
# Track frame offsets:
#	150
#	10974
#	21924
#	30003
#	38853
#	52570
#	64812
#	77619
#	84482
#	98722
#	112259
#	133194
#	145327
#	157822
#	170078
#	179256
#	192706
#	200916
#	213035
#	224632
#	236671
#	247651
#	258826
#	268934
#	281434
#
# Disc length: 3942 seconds
#
# Revision: 0
# Processed by: cddbd v1.5.2PL0 Copyright (c) Steve Scherf et al.
# Submitted via: EZCDAudioConverter 2.1.5.1
#
DISCID=620f6419
DTITLE=Nashville Mandolines and Fiddles - 100 Classic Songs Cd 4
DYEAR=2009
DGENRE=Country
TTITLE0=Orange Blossom Special
TTITLE1=Big Rock Canyon Mountain
TTITLE2=Old Joe Clark
TTITLE3=Chicken Reel
TTITLE4=Sunny Side Of The Mountain
TTITLE5=Rock A My Soul
TTITLE6=Silent Night
TTITLE7=Handsome Molly
TTITLE8=Keep On The Sunny Side
TTITLE9=I Wom't Have To Cross Jordan
TTITLE10=Danny Boy
TTITLE11=Long Long Ago
TTITLE12=Down In He Valley
TTITLE13=Beautiful Dreamer
TTITLE14=Old Mcdonald
TTITLE15=Cherokee Shuffle
TTITLE16=Frankie and Johnny
TTITLE17=Swing Low Sweet Chariot
TTITLE18=Rock Island Line
TTITLE19=Put Your Little Foot
TTITLE20=Faith Of Our Fathers
TTITLE21=Where The Roses Never Fade
TTITLE22=Way Down Yonder
TTITLE23=When The Work's Done This Fall
TTITLE24=Peace In The Valley
EXTD=
EXTT0=
EXTT1=
EXTT2=
EXTT3=
EXTT4=
EXTT5=
EXTT6=
EXTT7=
EXTT8=
EXTT9=
EXTT10=
EXTT11=
EXTT12=
EXTT13=
EXTT14=
EXTT15=
EXTT16=
EXTT17=
EXTT18=
EXTT19=
EXTT20=
EXTT21=
EXTT22=
EXTT23=
EXTT24=
PLAYORDER=
